<?xml version="1.0" encoding="UTF-8"?>
<!DOCTYPE svg PUBLIC "-//W3C//DTD SVG 1.1//EN" "http://www.w3.org/Graphics/SVG/1.1/DTD/svg11.dtd">
<!-- Creator: CorelDRAW 2017 -->
<svg xmlns="http://www.w3.org/2000/svg" xml:space="preserve" width="210mm" height="297mm" version="1.1" style="shape-rendering:geometricPrecision; text-rendering:geometricPrecision; image-rendering:optimizeQuality; fill-rule:evenodd; clip-rule:evenodd"
viewBox="0 0 21000 29700"
 xmlns:xlink="http://www.w3.org/1999/xlink">
 <defs>
  <style type="text/css">
   <![CDATA[
    .str1 {stroke:#898989;stroke-width:140;stroke-miterlimit:22.9256}
    .str0 {stroke:#FFFBDB;stroke-width:7.62;stroke-miterlimit:22.9256}
    .fil1 {fill:none}
    .fil0 {fill:#FFFBDB}
   ]]>
  </style>
 </defs>
 <g id="Laag_x0020_1">
  <metadata id="CorelCorpID_0Corel-Layer"/>
  <g id="_2320805890304">
   <rect class="fil0 str0" x="-22.8" y="4.32" width="21045.6" height="29805.12"/>
   <path class="fil1 str1" d="M6823.12 15074.2l-44.84 1165.84 734.92 741.38m-190 612.18l-144.4 794.2 108.3 1191.3 505.4 36.1m-2525.46 -4224.84l85.32 1905.48 -1365.12 28.44 -910.08 341.28 -1023.84 -28.44 -142.2 483.48 341.28 511.92 -28.44 796.32 2588.04 2388.96 1336.68 739.44 1990.8 1877.04 767.88 1166.04m-7024.68 -7451.28l-483.48 1109.16m85.32 2417.4l1478.88 2189.88 199.08 -568.8 682.56 -767.88 881.64 -142.2 -227.52 1450.44 1166.04 255.96 995.4 426.6 824.76 0 767.88 540.36 483.48 1166.04m-4095.36 -1990.8l625.68 28.44 483.48 255.96 625.68 455.04 796.32 -113.76 1052.28 625.68 284.4 455.04m6455.88 -5318.28l1507.32 483.48 682.56 540.36 995.4 -28.44 1222.92 682.56 654.12 597.24m-5688 -1933.92l113.76 2332.08 -284.4 -142.2 0 -483.48 -255.96 -170.64 -711 0m767.88 -1450.44l-56.88 824.76 -739.44 455.04m-4180.68 3099.96l1052.28 -1308.24 739.44 -28.44 1535.76 -1308.24 284.4 0 199.08 -455.04 170.64 28.44 227.52 455.04 625.68 511.92 -625.68 312.84 -341.28 483.48 -1649.52 881.64 -881.64 312.84 -1023.84 796.32m341.28 255.96l824.76 -625.68 369.72 0 398.16 -398.16m-5716.44 -9442.08l56.88 910.08 654.12 511.92 455.04 -341.28m-938.52 540.36l341.28 1109.16 -170.64 654.12m-1137.6 -284.4l-85.32 1251.36 739.44 455.04m-28.44 -3640.32l-711 1677.96 -455.04 597.24 -910.08 568.8m14333.8 -8276.04l113.76 1677.96 -568.8 398.16m-255.96 -227.52l312.84 824.76 -142.2 1507.32m-199.08 -284.4l0 1023.84 -398.16 455.04m-2388.96 2189.88l199.08 1023.84 654.12 142.2 597.24 -1023.84 711 -995.4 142.2 -1279.8 -284.4 -455.04m-1962.36 3697.2l-85.32 654.12 -682.56 -28.44 -511.92 284.4 -1734.84 199.08 -1478.88 -910.08 -1194.48 -853.2 113.76 -995.4m227.52 -1336.68l-85.32 398.16 -597.24 540.36m4209.12 -3867.84l-910.08 56.88 -426.6 568.8 -1109.16 597.24 -739.44 28.44 -255.96 540.36m341.28 -199.08l682.56 -142.2 654.12 -455.04m966.96 28.44l739.44 -56.88 369.72 682.56 654.12 483.48 739.44 85.32 540.36 -511.92 28.44 -796.32m-199.08 -568.8l199.08 -511.92 0 -910.08 284.4 -767.88m255.96 483.48l511.92 -113.76 739.44 227.52 312.84 767.88 -28.44 824.76m-1365.12 -1194.48l227.52 483.48 568.8 28.44 255.96 369.72 -28.44 511.92m-1194.48 -142.2l483.48 511.92 455.04 170.64m-682.56 -938.52l398.16 56.88 284.4 369.72m-4322.88 -1763.28l-938.52 85.32 -711 -284.4m369.72 -341.28l-483.48 -255.96m-284.4 -938.52l455.04 -483.48 966.96 -142.2m-1194.48 -85.32l1023.84 -113.76m-1422 625.68l113.76 -142.2m4209.12 170.64l711 -85.32 113.76 483.48m995.4 312.84l711 -227.52 255.96 341.28m-142.2 -2133l-625.68 113.76 -483.48 -341.28 -426.6 -28.44 -455.04 -511.92m-1194.48 1194.48l-995.4 -739.44 -938.52 0 -540.36 255.96m-824.76 1848.6l654.12 -511.92 1166.04 0 540.36 398.16 398.16 -28.44m-483.48 -312.84l625.68 -56.88 568.8 284.4 85.32 398.16 -511.92 597.24m-312.84 -455.04l-199.08 455.04 -455.04 0m-466.19 -1051.83l-389.04 129.68 16.21 307.99 356.62 243.15 486.3 0 162.1 -226.94 -194.52 -340.41 -259.36 32.42m4117.34 1685.84l-291.78 48.63 -81.05 243.15 194.52 275.57 340.41 -32.42 129.68 -356.62m259.36 194.52l0 453.88m-10864.9 270.43l-312.84 767.88 -540.36 85.32 -597.24 -483.48 -113.76 -398.16m-57.45 -282.84l67.08 -1106.82m788.19 452.79l-469.56 -419.25 -553.41 -519.87 -184.47 -1643.46m234.78 -251.55l-218.01 -922.35 251.55 -737.88 486.33 -318.63 654.03 436.02 536.64 821.73 -150.93 821.73m-1140.36 -670.8l251.55 -519.87 318.63 33.54 285.09 620.49 100.62 301.86m335.4 385.71l100.62 452.79 -352.17 436.02 -519.87 -117.39 -33.54 -234.78m0 -184.47l436.02 -301.86m-50.31 1475.76l-134.16 469.56 285.09 301.86m-1324.26 -4551.36l455.04 -426.6 654.12 113.76 398.16 540.36 711 711 170.64 995.4 -142.2 711m-255.96 1080.72l-56.88 568.8 312.84 398.16 910.08 -85.32m-568.8 -3867.84l682.56 -398.16 682.56 -113.76 0 568.8m-1933.92 -426.6l597.24 142.2 426.6 -255.96m2076.12 7792.56l142.2 511.92 426.6 -85.32m5119.2 -170.64l0 1109.16 -199.08 -1222.92 255.96 -568.8m-2644.92 -199.08l654.12 739.44 966.96 142.2m-1422 -142.2l369.72 568.8 568.8 170.64m-3981.6 -966.96l995.4 540.36 1222.92 455.04 739.44 426.6 824.76 28.44 426.6 369.72 426.6 -113.76 568.8 483.48m-4635.72 -1592.64l1194.48 597.24 1251.36 540.36 938.52 199.08 739.44 369.72 312.84 -56.88m-2047.68 312.84l511.92 341.28 682.56 -28.44 28.44 -113.76m-2588.04 -426.6l540.36 284.4m5147.64 -10238.4l227.52 -369.72 0 341.28m199.08 -2758.68l170.64 -995.4 -824.76 -796.32m170.64 1393.56l-995.4 -910.08 -1279.8 -767.88m1308.24 227.52l-85.32 -255.96m-85.32 -341.28l-654.12 -426.6m-369.72 767.88l-85.32 -625.68 -682.56 -312.84m4465.08 8162.28l0 -1990.8 -227.52 -1564.2 -682.56 -1194.48 -597.24 -455.04m1621.08 1450.44l511.92 170.64 540.36 767.88m-6199.92 -4266l85.32 -739.44 -1052.28 -597.24 -1308.24 -56.88 -1080.72 -511.92 -1308.24 426.6m3896.28 1222.92l-1023.84 -85.32 -1393.56 739.44m568.8 -966.96l-1052.28 -312.84 -1308.24 455.04 -1564.2 369.72m3526.56 910.08l-910.08 -227.52 -1279.8 853.2 -284.4 1166.04m28.44 796.32l-881.64 -824.76 -1080.72 369.72m227.52 -483.48l-341.28 -739.44 540.36 -1052.28m-568.8 -199.08l-853.2 767.88 56.88 1279.8m13651.2 5375.16l142.2 1109.16 796.32 341.28m-28.44 -1109.16l625.68 -767.88 -56.88 -1763.28m-369.72 -938.52l-597.24 910.08 312.84 1649.52m-10067.8 1791.72l-255.96 654.12 -796.32 142.2m1905.48 -5688l-455.04 -796.32m796.32 -966.96l-56.88 853.2"/>
  </g>
 </g>
</svg>
